<?xml version="1.0" encoding="UTF-8"?>
<svg xmlns="http://www.w3.org/2000/svg" viewBox="0 0 16 16">
  <!-- File icon -->
  <g id="file">
    <path d="M3 2h6l4 4v8a1 1 0 0 1-1 1H3a1 1 0 0 1-1-1V3a1 1 0 0 1 1-1z" fill="currentColor"/>
  </g>
  
  <!-- Folder icon -->
  <g id="folder">
    <path d="M2 3a1 1 0 0 0-1 1v8a1 1 0 0 0 1 1h10a1 1 0 0 0 1-1V6h-4.5a.5.5 0 0 1-.354-.146L7.5 4.207 6.354 3.06A.5.5 0 0 0 6 3H2z" fill="currentColor"/>
  </g>
  
  <!-- Folder open icon -->
  <g id="folder-open">
    <path d="M1 3.5A1.5 1.5 0 0 1 2.5 2h2.793L6 2.5H11a1 1 0 0 1 1 1v1.147a1 1 0 0 1-.607.923l-1.85 1.086A1 1 0 0 1 8.736 6H6.5a1 1 0 0 0-1 1v.147a1 1 0 0 1-.607.923l-1.85 1.086A1 1 0 0 1 2.236 9H1V3.5z" fill="currentColor"/>
  </g>
  
  <!-- Save icon -->
  <g id="save">
    <path d="M2 3a1 1 0 0 1 1-1h10a1 1 0 0 1 1 1v8a1 1 0 0 1-1 1H3a1 1 0 0 1-1-1V3z" fill="currentColor"/>
    <path d="M6 1a1 1 0 0 0-1 1v2a1 1 0 0 0 1 1h4a1 1 0 0 0 1-1V2a1 1 0 0 0-1-1H6z" fill="currentColor"/>
  </g>
  
  <!-- Settings icon -->
  <g id="settings">
    <path d="M8 1a7 7 0 0 1 7 7 7 7 0 0 1-7 7 7 7 0 0 1-7-7 7 7 0 0 1 7-7zm0 1a6 6 0 0 0-6 6 6 6 0 0 0 6 6 6 6 0 0 0 6-6 6 6 0 0 0-6-6zm0 1a5 5 0 0 1 5 5 5 5 0 0 1-5 5 5 5 0 0 1-5-5 5 5 0 0 1 5-5zm0 1a4 4 0 0 0 4 4 4 4 0 0 0-4 4 4 4 0 0 0-4-4 4 4 0 0 0 4-4zm0 1a3 3 0 0 1 3 3 3 3 0 0 1-3 3 3 3 0 0 1-3-3 3 3 0 0 1 3-3z" fill="currentColor"/>
  </g>
  
  <!-- Close icon -->
  <g id="close">
    <path d="M4.646 4.646a.5.5 0 0 1 .708 0L8 7.293l2.646-2.647a.5.5 0 0 1 .708.708L8.707 8l2.647 2.646a.5.5 0 0 1-.708.708L8 8.707l-2.646 2.647a.5.5 0 0 1-.708-.708L7.293 8 4.646 5.354a.5.5 0 0 1 0-.708z" fill="currentColor"/>
  </g>
  
  <!-- Minimize icon -->
  <g id="minimize">
    <path d="M2 8a.5.5 0 0 1 .5-.5h11a.5.5 0 0 1 0 1h-11A.5.5 0 0 1 2 8z" fill="currentColor"/>
  </g>
  
  <!-- Maximize icon -->
  <g id="maximize">
    <path d="M2 4a1 1 0 0 1 1-1h10a1 1 0 0 1 1 1v8a1 1 0 0 1-1 1H3a1 1 0 0 1-1-1V4zm1-1a2 2 0 0 0-2 2v8a2 2 0 0 0 2 2h10a2 2 0 0 0 2-2V4a2 2 0 0 0-2-2H3z" fill="currentColor"/>
  </g>
  
  <!-- Restore icon -->
  <g id="restore">
    <path d="M4 4a1 1 0 0 0-1 1v5a1 1 0 0 0 1 1h5a1 1 0 0 0 1-1V5a1 1 0 0 0-1-1H4zm-2 1a2 2 0 0 1 2-2h5a2 2 0 0 1 2 2v5a2 2 0 0 1-2 2H4a2 2 0 0 1-2-2V5z" fill="currentColor"/>
  </g>
  
  <!-- Open folder icon -->
  <g id="open-folder">
    <path d="M1.75 2a.75.75 0 0 0-.75.75v2.5c0 .414.336.75.75.75H2v1.25c0 .414.336.75.75.75h2.5a.75.75 0 0 0 .75-.75V5.25h1.25a.75.75 0 0 0 .75-.75v-2.5a.75.75 0 0 0-.75-.75H6.25a.75.75 0 0 0-.75.75v1.5h-1.5v-1.5A.75.75 0 0 0 3.25 2H1.75ZM1.75 8a.75.75 0 0 0-.75.75v5.5c0 .414.336.75.75.75h12.5a.75.75 0 0 0 .75-.75v-5.5a.75.75 0 0 0-.75-.75H1.75Z" fill="currentColor"/>
  </g>
  
  <!-- New file icon -->
  <g id="new-file">
    <path d="M6.75 3.25a.75.75 0 0 0-1.5 0v1.5H3.75a.75.75 0 0 0 0 1.5h1.5v1.5a.75.75 0 0 0 1.5 0V6.25h1.5a.75.75 0 0 0 0-1.5h-1.5V3.25ZM3.25 1a.75.75 0 0 0-.75.75v12.5c0 .414.336.75.75.75h9.5a.75.75 0 0 0 .75-.75V3.75a.75.75 0 0 0-.75-.75H8.5v-.5c0-.414-.336-.75-.75-.75H3.25Z" fill="currentColor"/>
  </g>
  
  <!-- New folder icon -->
  <g id="new-folder">
    <path d="M1.75 2a.75.75 0 0 0-.75.75v2.5c0 .414.336.75.75.75H2v1.25c0 .414.336.75.75.75h2.5a.75.75 0 0 0 .75-.75V5.25h1.25a.75.75 0 0 0 .75-.75v-2.5a.75.75 0 0 0-.75-.75H6.25a.75.75 0 0 0-.75.75v1.5h-1.5v-1.5A.75.75 0 0 0 3.25 2H1.75ZM1.75 8a.75.75 0 0 0-.75.75v5.5c0 .414.336.75.75.75h12.5a.75.75 0 0 0 .75-.75v-5.5a.75.75 0 0 0-.75-.75H1.75Z" fill="currentColor"/>
  </g>
  
  <!-- Rename icon -->
  <g id="rename">
    <path d="M1.75 2A1.75 1.75 0 0 0 0 3.75v8.5C0 13.216.784 14 1.75 14h12.5A1.75 1.75 0 0 0 16 12.25v-8.5A1.75 1.75 0 0 0 14.25 2H1.75ZM1.5 3.75v8.5c0 .138.112.25.25.25h12.5a.25.25 0 0 0 .25-.25v-8.5a.25.25 0 0 0-.25-.25H1.75a.25.25 0 0 0-.25.25ZM11 8.25a.75.75 0 0 1-.75.75H5.5a.75.75 0 0 1 0-1.5h4.75a.75.75 0 0 1 .75.75Z" fill="currentColor"/>
  </g>
  
  <!-- Delete icon -->
  <g id="delete">
    <path d="M5.5 2A.5.5 0 0 0 5 2.5v.5H2a.5.5 0 0 0 0 1h.258l.277 8.86a1.5 1.5 0 0 0 1.5.5h6.929a1.5 1.5 0 0 0 1.5-.5l.277-8.86H13a.5.5 0 0 0 0-1h-3v-.5A.5.5 0 0 0 9.5 2h-4ZM11 7.5a.5.5 0 0 1 .5.5v6a.5.5 0 0 1-.5.5H5a.5.5 0 0 1-.5-.5v-6a.5.5 0 0 1 .5-.5h6Z" fill="currentColor"/>
  </g>
  
  <!-- Chat icon -->
  <g id="chat">
    <path d="M8 1a7 7 0 0 0-7 7c0 1.93.779 3.714 2.093 5.006.246.244.369.366.52.446a1.5 1.5 0 0 0 .704.188c.18.004.37.004.745.004h5.766c.375 0 .565 0 .745-.004a1.5 1.5 0 0 0 .704-.188c.151-.08.274-.202.52-.446A6.952 6.952 0 0 0 15 8a7 7 0 0 0-7-7ZM5.78 4.5a1.25 1.25 0 0 0-1.768 1.768l2 2a1.25 1.25 0 0 0 1.768 0l2-2a1.25 1.25 0 0 0-1.768-1.768L8 6.219 5.78 4.5Z" fill="currentColor"/>
  </g>
</svg>