<svg xmlns="http://www.w3.org/2000/svg" enable-background="new 0 0 24 24" viewBox="0 0 24 24" id="sega"><path fill="#0442EA" d="M2.75,24l10.632-0.01c4.346,0,7.868-3.521,7.868-7.869c0-4.344-3.521-7.869-7.867-7.869l-2.76,0.016c-0.216,0-0.396-0.177-0.396-0.398c0-0.218,0.178-0.4,0.396-0.4h10.599l0.006-3.33V4.139H10.612c-2.057,0-3.723,1.665-3.723,3.726c0,2.054,1.667,3.72,3.727,3.72l2.77,0.03c2.489,0,4.505,2.016,4.505,4.506c0,2.488-2.017,4.504-4.504,4.504H2.755L2.75,24L2.75,24z"></path><path fill="#0442EA" d="M13.368,16.512H2.761l0.005,3.331l10.65-0.003c2.054,0,3.719-1.664,3.719-3.719c0-2.057-1.665-3.725-3.719-3.725l-2.775-0.029c-2.49,0-4.514-2.016-4.514-4.504c0-2.488,2.01-4.508,4.499-4.508l10.603-0.002l-0.006-3.35L10.623,0C6.279,0,2.758,3.523,2.758,7.869s3.521,7.871,7.866,7.871h2.744c0.211,0,0.384,0.172,0.384,0.385C13.751,16.337,13.578,16.512,13.368,16.512L13.368,16.512z"></path><path fill="#0339CC" d="M12,20.625H2.755L2.75,24L12,23.992V20.625L12,20.625z M12,4.139h-1.388c-2.057,0-3.723,1.665-3.723,3.726c0,2.054,1.667,3.72,3.727,3.72L12,11.6V8.26l-1.377,0.008c-0.216,0-0.396-0.177-0.396-0.398c0-0.218,0.178-0.4,0.396-0.4H12V4.139L12,4.139z"></path><path fill="#0339CC" d="M12,16.512H2.761l0.005,3.331L12,19.84V16.512L12,16.512z M10.623,0C6.279,0,2.758,3.523,2.758,7.869s3.521,7.871,7.866,7.871H12v-3.359l-1.359-0.014c-2.49,0-4.514-2.016-4.514-4.504c0-2.488,2.01-4.508,4.499-4.508l1.375,0V0H10.623L10.623,0z"></path></svg>