<svg xmlns="http://www.w3.org/2000/svg" enable-background="new 0 0 64 64" viewBox="0 0 64 64" id="pacman"><path fill="#34495c" d="M20.64,21.88c0-1.06-0.87-1.92-1.94-1.92c-1.07,0-1.93,0.86-1.93,1.92c0,1.07,0.87,1.93,1.93,1.93
		C19.77,23.81,20.64,22.95,20.64,21.88z"></path><path fill="#00aeef" d="M18.19,31.11l16.16-9.37c-3.45-5.23-9.35-8.45-15.64-8.45C8.39,13.29,0,21.69,0,32s8.39,18.71,18.71,18.71
		c6.29,0,12.19-3.21,15.64-8.45l-16.16-9.37c-0.32-0.18-0.51-0.52-0.51-0.89C17.68,31.63,17.87,31.29,18.19,31.11z M15.14,21.88
		c0-1.96,1.6-3.55,3.56-3.55c1.96,0,3.56,1.6,3.56,3.55c0,1.97-1.61,3.56-3.56,3.56C16.74,25.44,15.14,23.85,15.14,21.88z"></path><path fill="#34495c" d="M43.96 28.53c-2.47 0-4.47 2.01-4.47 4.47 0 2.47 2.01 4.47 4.47 4.47 2.47 0 4.47-2.01 4.47-4.47C48.43 30.54 46.43 28.53 43.96 28.53zM59.53 28.53c-2.47 0-4.47 2.01-4.47 4.47 0 2.47 2.01 4.47 4.47 4.47 2.47 0 4.47-2.01 4.47-4.47C64 30.54 61.99 28.53 59.53 28.53z"></path></svg>